:version 1.10
:name ASF
:units
  mass 1
  length 1
  angle deg
:documentation
  ASF file generated by Kaydara
:root
  axis xyz
  order  tx ty tz rx ry rz
  position 0 0 0
  orientation 0 0 0
:bonedata
  begin
    id 1
    name RightUpLegDummy
    direction -0.718183 -0.695806 0.00816078
    length 4.904
    axis 0 0 0 xyz
  end
  begin
    id 2
    name RightUpLeg
    direction 3.53373e-006 -0.995788 0.0916898
    length 17.4976
    axis -3.49089 -0.000906625 0.000286804 xyz
    dof rx ry rz
  end
  begin
    id 3
    name RightLeg
    direction 0.00371092 -0.995096 -0.0988419
    length 16.5821
    axis 3.68512 0.0193738 -0.131023 xyz
    dof rx ry rz
  end
  begin
    id 4
    name RightFoot
    direction 0.00079151 -0.46099 0.887405
    length 3.77069
    axis 4.81691e-005 -0.120479 -0.188788 xyz
    dof rx ry rz
  end
  begin
    id 5
    name RightToes
    direction 0 0 0
    length 0
    axis 0 0 0 xyz
    dof rx ry rz
  end
  begin
    id 6
    name SpineDummy
    direction 8.3039e-015 1 4.57515e-016
    length 4.6813
    axis 0 0 0 xyz
  end
  begin
    id 7
    name Spine
    direction -3.15643e-008 0.999988 0.00495137
    length 10.1015
    axis -0.001389 0.000121418 2.40972e-006 xyz
    dof rx ry rz
  end
  begin
    id 8
    name Spine1
    direction 0 0 0
    length 0
    axis -0.001389 0.000121451 1.30017e-006 xyz
    dof rx ry rz
  end
  begin
    id 9
    name HEadDummy
    direction -1.99912e-008 0.999999 0.00127422
    length 3.43865
    axis -0.001389 0.000121451 1.30017e-006 xyz
  end
  begin
    id 10
    name HEad
    direction 0 0 0
    length 0
    axis 0 0 0 xyz
    dof rx ry rz
  end
  begin
    id 11
    name LeftShoulder1Dummy
    direction 0.998891 -0.0402509 -0.0244456
    length 3.5433
    axis -0.001389 0.000121451 1.30017e-006 xyz
  end
  begin
    id 12
    name LeftShoulder1
    direction 0.99951 -0.000327763 0.0313091
    length 4.05031
    axis -0.001389 0.000121451 1.30017e-006 xyz
    dof rx ry rz
  end
  begin
    id 13
    name LeftArm
    direction 0.998561 -0.00100056 -0.0536182
    length 10.3537
    axis -23.1894 0.134784 0.967509 xyz
    dof rx ry rz
  end
  begin
    id 14
    name LeftForeArm
    direction 0.998903 0.00866432 0.046012
    length 8.70632
    axis -9.91835 -0.06569 -0.177794 xyz
    dof rx ry rz
  end
  begin
    id 15
    name LeftHand
    direction 0 0 0
    length 0
    axis 0 0 0 xyz
    dof rx ry rz
  end
  begin
    id 16
    name RightShoulderDummy
    direction -0.998891 -0.0402509 -0.0244414
    length 3.5433
    axis -0.001389 0.000121451 1.30017e-006 xyz
  end
  begin
    id 17
    name RightShoulder
    direction -0.99951 -0.000327807 0.0313133
    length 4.05031
    axis 0.215806 0.000203643 -0.0068026 xyz
    dof rx ry rz
  end
  begin
    id 18
    name RightArm
    direction -0.998573 -0.000999564 -0.053403
    length 10.3947
    axis -23.2009 -0.134239 -0.964101 xyz
    dof rx ry rz
  end
  begin
    id 19
    name RightForeArm
    direction -0.998898 0.00868028 0.0461306
    length 8.68355
    axis -9.92322 0.0658061 0.178868 xyz
    dof rx ry rz
  end
  begin
    id 20
    name RightHand
    direction 0 0 0
    length 0
    axis 0 0 0 xyz
    dof rx ry rz
  end
  begin
    id 21
    name LeftUpLegDummy
    direction 0.718183 -0.695806 0.00816078
    length 4.904
    axis 0 0 0 xyz
  end
  begin
    id 22
    name LeftUpLeg
    direction -6.81752e-006 -0.995793 0.0916337
    length 17.4976
    axis -3.48766 0.00143442 -0.000524262 xyz
    dof rx ry rz
  end
  begin
    id 23
    name LeftLeg
    direction -0.00601358 -0.995091 -0.0987824
    length 16.5821
    axis 3.68178 -0.00654042 -0.000285133 xyz
    dof rx ry rz
  end
  begin
    id 24
    name LeftFoot
    direction -0.00417578 -0.460984 0.887399
    length 3.77069
    axis 1.87233e-006 4.66016e-005 -8.6538e-006 xyz
    dof rx ry rz
  end
  begin
    id 25
    name LeftToes
    direction 0 0 0
    length 0
    axis 0 0 0 xyz
    dof rx ry rz
  end
:hierarchy
  begin
    root RightUpLegDummy SpineDummy LeftUpLegDummy
    RightUpLegDummy RightUpLeg
    RightUpLeg RightLeg
    RightLeg RightFoot
    RightFoot RightToes
    SpineDummy Spine
    Spine Spine1
    Spine1 HEadDummy LeftShoulder1Dummy RightShoulderDummy
    HEadDummy HEad
    LeftShoulder1Dummy LeftShoulder1
    LeftShoulder1 LeftArm
    LeftArm LeftForeArm
    LeftForeArm LeftHand
    RightShoulderDummy RightShoulder
    RightShoulder RightArm
    RightArm RightForeArm
    RightForeArm RightHand
    LeftUpLegDummy LeftUpLeg
    LeftUpLeg LeftLeg
    LeftLeg LeftFoot
    LeftFoot LeftToes
  end

:SAMPLES-PER-SECOND 30
:FULLY-SPECIFIED
:DEGREES
203
root  12.4968 40.3254 12.9383 160.285 83.577 168.027
RightUpLeg  3.74437 -16.7226 -12.0293
RightLeg  14.6817 -10.5689 -0.377592
RightFoot  -4.40187 -0.184085 2.54167
RightToes  0.000481921 0.542163 -0.142578
Spine  9.28149 2.23627 8.46628
Spine1  12.1213 5.76573 -8.43931
HEad  15.47 5.55777 -2.03813
LeftShoulder1  5.22668 -10.5491 -31.1468
LeftArm  -10.372 -27.5706 -46.5595
LeftForeArm  -171.777 -53.1856 -167.933
LeftHand  -0.25398 0.0180481 5.50724
RightShoulder  6.09145 12.1139 33.0431
RightArm  -7.95695 23.9925 49.5939
RightForeArm  -179.315 55.2393 166.408
RightHand  -0.126085 0.924791 -2.40085
LeftUpLeg  3.42459 10.5979 8.87894
LeftLeg  9.09836 5.52893 -1.14231
LeftFoot  -0.152965 0.547155 -5.57511
LeftToes  1.06245e-005 4.65869e-005 -8.65517e-006
204
root  12.5067 40.4147 12.8204 139.739 87.0331 147.373
RightUpLeg  3.56137 -14.8298 -11.6487
RightLeg  12.9565 -9.09689 0.603564
RightFoot  -3.47718 -0.182088 2.30201
RightToes  0.000481921 0.542163 -0.142578
Spine  8.19179 2.17869 8.48031
Spine1  11.058 5.758 -9.43673
HEad  18.5879 6.50343 -0.683995
LeftShoulder1  5.42439 -10.9227 -31.5583
LeftArm  -10.0786 -26.1981 -46.3978
LeftForeArm  -170.966 -53.0067 -168.068
LeftHand  -0.25398 0.0180481 5.50724
RightShoulder  5.34739 11.3566 30.0155
RightArm  -6.91506 27.319 51.291
RightForeArm  179.892 58.1693 164.8
RightHand  -0.224995 1.85165 -3.80867
LeftUpLeg  5.0902 10.4955 9.50883
LeftLeg  7.46724 9.07498 -1.87493
LeftFoot  0.118006 0.571381 -5.7002
LeftToes  1.06245e-005 4.65869e-005 -8.65517e-006
205
root  12.4611 40.4399 12.7176 72.5671 88.557 80.3051
RightUpLeg  3.10576 -13.9442 -11.3428
RightLeg  12.3373 -7.05499 0.925114
RightFoot  -3.00631 -0.18561 2.26453
RightToes  0.000481921 0.542163 -0.142578
Spine  7.58644 1.91151 8.27484
Spine1  10.4628 5.44911 -9.92743
HEad  20.684 7.3916 -0.0449788
LeftShoulder1  5.58606 -11.2072 -31.9316
LeftArm  -9.81693 -25.0929 -46.3122
LeftForeArm  -169.207 -52.6122 -168.36
LeftHand  -0.25398 0.0180481 5.50724
RightShoulder  4.75784 10.6828 27.5166
RightArm  -5.74578 30.7147 52.8215
RightForeArm  179.001 60.7287 163.15
RightHand  -0.302124 2.82945 -4.54078
LeftUpLeg  6.23854 10.7614 9.93427
LeftLeg  6.89748 11.6932 -2.33607
LeftFoot  -0.052973 0.574448 -5.80811
LeftToes  1.06245e-005 4.65869e-005 -8.65517e-006
206
root  12.3306 40.3657 12.6286 14.2243 86.9528 22.3254
RightUpLeg  2.17814 -13.9595 -10.9258
RightLeg  13.3448 -4.79692 0.627267
RightFoot  -3.23251 -0.193833 2.4247
RightToes  0.000481921 0.542163 -0.142578
Spine  7.58903 1.3794 7.52365
Spine1  10.419 4.61806 -9.20949
HEad  21.4193 8.45237 -0.256257
LeftShoulder1  5.76624 -11.4941 -32.4073
LeftArm  -9.84212 -24.1452 -46.257
LeftForeArm  -166.356 -52.0046 -168.807
LeftHand  -0.25398 0.0180481 5.50724
RightShoulder  4.34531 10.1527 25.7307
RightArm  -4.24041 34.0689 54.1208
RightForeArm  177.734 62.8521 161.525
RightHand  -0.337519 2.75108 -5.08156
LeftUpLeg  6.25501 12.8651 10.4161
LeftLeg  8.63932 11.6568 -1.7552
LeftFoot  -1.10749 0.545732 -6.02117
LeftToes  1.06245e-005 4.65869e-005 -8.65517e-006
207
root  12.1138 40.1919 12.5301 4.6113 85.4091 13.3507
RightUpLeg  0.881249 -14.1824 -10.326
RightLeg  15.6865 -2.87553 -0.0365767
RightFoot  -3.97683 -0.19268 2.57121
RightToes  0.000481921 0.542163 -0.142578
Spine  8.53826 0.661578 6.57243
Spine1  10.448 3.43412 -7.66701
HEad  20.9705 9.63471 -1.15216
LeftShoulder1  5.94542 -11.7935 -32.8264
LeftArm  -10.2641 -23.3302 -46.1881
LeftForeArm  -163.408 -51.2117 -169.318
LeftHand  -0.25398 0.0180481 5.50724
RightShoulder  4.01958 9.67908 24.3431
RightArm  -2.31703 36.5482 55.7789
RightForeArm  177.016 64.3018 160.304
RightHand  -0.354033 2.24056 -5.61338
LeftUpLeg  5.30163 16.8075 10.8786
LeftLeg  12.2984 9.03257 0.0439232
LeftFoot  -2.84113 0.482786 -6.26364
LeftToes  1.06245e-005 4.65869e-005 -8.65517e-006
208
root  11.8591 39.969 12.4072 -1.70416 84.0259 8.01859
RightUpLeg  -0.245464 -13.5542 -9.72439
RightLeg  18.3663 -1.89863 -0.666879
RightFoot  -4.80275 -0.17799 2.54162
RightToes  0.000481921 0.542163 -0.142578
Spine  10.3059 -0.0159782 5.9472
Spine1  10.6637 2.38605 -6.24084
HEad  19.5604 10.6199 -2.27766
LeftShoulder1  6.05797 -11.9877 -33.0648
LeftArm  -10.7315 -22.8911 -46.2221
LeftForeArm  -161.177 -50.3362 -169.795
LeftHand  -0.25398 0.0180481 5.50724
RightShoulder  3.8647 9.4833 23.5757
RightArm  -0.453955 37.1421 57.6029
RightForeArm  178.674 64.3192 160.448
RightHand  -0.33788 2.0474 -5.48681
LeftUpLeg  4.38347 19.5305 11.0357
LeftLeg  16.0767 7.26286 2.12081
LeftFoot  -4.60353 0.400859 -6.33278
LeftToes  1.06245e-005 4.65869e-005 -8.65517e-006
209
root  11.6536 39.7967 12.2796 -4.8745 82.4464 5.89076
RightUpLeg  -0.818255 -12.0333 -9.4103
RightLeg  20.1949 -1.67705 -0.902207
RightFoot  -5.30458 -0.165654 2.4573
RightToes  0.000481921 0.542163 -0.142578
Spine  11.9211 -0.415505 5.65557
Spine1  11.4518 1.79138 -5.34392
HEad  17.8249 11.0495 -3.11705
LeftShoulder1  6.08483 -11.9505 -33.3313
LeftArm  -10.6798 -22.8228 -46.586
LeftForeArm  -159.652 -49.6129 -170.156
LeftHand  -0.25398 0.0180481 5.50724
RightShoulder  4.05681 9.85172 24.212
RightArm  0.96709 35.2155 58.9419
RightForeArm  -177.035 62.5538 162.231
RightHand  -0.272588 2.14418 -4.42107
LeftUpLeg  4.28516 19.4613 10.971
LeftLeg  18.5164 8.39516 3.48551
LeftFoot  -5.83307 0.335569 -6.24632
LeftToes  1.06245e-005 4.65869e-005 -8.65517e-006
210
root  11.5649 39.7552 12.1841 -5.1537 80.7723 6.06453
RightUpLeg  -1.09862 -10.7284 -9.37732
RightLeg  20.538 -1.30614 -0.761341
RightFoot  -5.28546 -0.167055 2.47692
RightToes  0.000481921 0.542163 -0.142578
Spine  12.414 -0.429103 5.32918
Spine1  12.5111 1.54762 -4.52894
HEad  16.6994 10.9471 -3.64739
LeftShoulder1  6.07485 -11.7094 -33.8848
LeftArm  -9.94762 -22.574 -47.2389
LeftForeArm  -158.591 -49.1623 -170.381
LeftHand  -0.25398 0.0180481 5.50724
RightShoulder  4.5798 10.5659 26.4821
RightArm  2.23229 30.5089 59.9415
RightForeArm  -171.82 59.6568 164.618
RightHand  -0.190637 2.4795 -3.06208
LeftUpLeg  4.81515 19.431 10.8285
LeftLeg  18.9707 9.82431 4.059
LeftFoot  -6.25739 0.31382 -6.22059
LeftToes  1.06245e-005 4.65869e-005 -8.65517e-006
